<?xml version="1.0" encoding="utf-8"?>
<!-- Generator: Adobe Illustrator 18.1.0, SVG Export Plug-In . SVG Version: 6.00 Build 0)  -->
<svg version="1.1" xmlns="http://www.w3.org/2000/svg" xmlns:xlink="http://www.w3.org/1999/xlink" x="0px" y="0px"
	 viewBox="0 0 190.969 81" enable-background="new 0 0 190.969 81" xml:space="preserve">
<g id="Layer_2" display="none">
	<line display="inline" fill="none" stroke="#B9B9B9" stroke-miterlimit="10" x1="0.504" y1="0" x2="0.504" y2="81"/>
	<line display="inline" fill="none" stroke="#B9B9B9" stroke-miterlimit="10" x1="190.004" y1="0.5" x2="1.004" y2="0.5"/>
	<line display="inline" fill="none" stroke="#B9B9B9" stroke-miterlimit="10" x1="190.004" y1="10.5" x2="1.004" y2="10.5"/>
	<line display="inline" fill="none" stroke="#B9B9B9" stroke-miterlimit="10" x1="190.004" y1="20.5" x2="1.004" y2="20.5"/>
	<line display="inline" fill="none" stroke="#B9B9B9" stroke-miterlimit="10" x1="190.004" y1="30.5" x2="1.004" y2="30.5"/>
	<line display="inline" fill="none" stroke="#B9B9B9" stroke-miterlimit="10" x1="190.004" y1="40.5" x2="1.004" y2="40.5"/>
	<line display="inline" fill="none" stroke="#B9B9B9" stroke-miterlimit="10" x1="190.004" y1="50.5" x2="1.004" y2="50.5"/>
	<line display="inline" fill="none" stroke="#B9B9B9" stroke-miterlimit="10" x1="190.004" y1="60.5" x2="1.004" y2="60.5"/>
	<line display="inline" fill="none" stroke="#B9B9B9" stroke-miterlimit="10" x1="190.004" y1="70.5" x2="1.004" y2="70.5"/>
	<line display="inline" fill="none" stroke="#B9B9B9" stroke-miterlimit="10" x1="190.004" y1="80.5" x2="1.004" y2="80.5"/>
	<line display="inline" fill="none" stroke="#B9B9B9" stroke-miterlimit="10" x1="9.504" y1="0" x2="9.504" y2="81"/>
	<line display="inline" fill="none" stroke="#B9B9B9" stroke-miterlimit="10" x1="20.504" y1="0" x2="20.504" y2="81"/>
	<line display="inline" fill="none" stroke="#B9B9B9" stroke-miterlimit="10" x1="30.504" y1="0" x2="30.504" y2="81"/>
	<line display="inline" fill="none" stroke="#B9B9B9" stroke-miterlimit="10" x1="40.504" y1="0" x2="40.504" y2="81"/>
	<line display="inline" fill="none" stroke="#B9B9B9" stroke-miterlimit="10" x1="50.504" y1="0" x2="50.504" y2="81"/>
	<line display="inline" fill="none" stroke="#B9B9B9" stroke-miterlimit="10" x1="60.504" y1="0" x2="60.504" y2="81"/>
	<line display="inline" fill="none" stroke="#B9B9B9" stroke-miterlimit="10" x1="70.504" y1="0" x2="70.504" y2="81"/>
	<line display="inline" fill="none" stroke="#B9B9B9" stroke-miterlimit="10" x1="80.504" y1="0" x2="80.504" y2="81"/>
	<line display="inline" fill="none" stroke="#B9B9B9" stroke-miterlimit="10" x1="90.504" y1="0" x2="90.504" y2="81"/>
	<line display="inline" fill="none" stroke="#B9B9B9" stroke-miterlimit="10" x1="100.504" y1="0" x2="100.504" y2="81"/>
	<line display="inline" fill="none" stroke="#B9B9B9" stroke-miterlimit="10" x1="110.504" y1="0" x2="110.504" y2="81"/>
	<line display="inline" fill="none" stroke="#B9B9B9" stroke-miterlimit="10" x1="120.504" y1="0" x2="120.504" y2="81"/>
	<line display="inline" fill="none" stroke="#B9B9B9" stroke-miterlimit="10" x1="130.504" y1="0" x2="130.504" y2="81"/>
	<line display="inline" fill="none" stroke="#B9B9B9" stroke-miterlimit="10" x1="140.504" y1="0" x2="140.504" y2="81"/>
	<line display="inline" fill="none" stroke="#B9B9B9" stroke-miterlimit="10" x1="150.504" y1="0" x2="150.504" y2="81"/>
	<line display="inline" fill="none" stroke="#B9B9B9" stroke-miterlimit="10" x1="160.504" y1="0" x2="160.504" y2="81"/>
	<line display="inline" fill="none" stroke="#B9B9B9" stroke-miterlimit="10" x1="170.504" y1="0" x2="170.504" y2="81"/>
	<line display="inline" fill="none" stroke="#B9B9B9" stroke-miterlimit="10" x1="190.504" y1="0" x2="190.504" y2="81"/>
	<line display="inline" fill="none" stroke="#B9B9B9" stroke-miterlimit="10" x1="180.504" y1="0" x2="180.504" y2="81"/>
	<line display="inline" fill="none" stroke="#B9B9B9" stroke-miterlimit="10" x1="210.504" y1="0" x2="210.504" y2="101"/>
	<line display="inline" fill="none" stroke="#B9B9B9" stroke-miterlimit="10" x1="400.004" y1="0.5" x2="211.004" y2="0.5"/>
	<line display="inline" fill="none" stroke="#B9B9B9" stroke-miterlimit="10" x1="400.004" y1="10.5" x2="211.004" y2="10.5"/>
	<line display="inline" fill="none" stroke="#B9B9B9" stroke-miterlimit="10" x1="400.004" y1="20.5" x2="211.004" y2="20.5"/>
	<line display="inline" fill="none" stroke="#B9B9B9" stroke-miterlimit="10" x1="400.004" y1="30.5" x2="211.004" y2="30.5"/>
	<line display="inline" fill="none" stroke="#B9B9B9" stroke-miterlimit="10" x1="400.004" y1="40.5" x2="211.004" y2="40.5"/>
	<line display="inline" fill="none" stroke="#B9B9B9" stroke-miterlimit="10" x1="400.004" y1="50.5" x2="211.004" y2="50.5"/>
	<line display="inline" fill="none" stroke="#B9B9B9" stroke-miterlimit="10" x1="400.004" y1="60.5" x2="211.004" y2="60.5"/>
	<line display="inline" fill="none" stroke="#B9B9B9" stroke-miterlimit="10" x1="400.004" y1="70.5" x2="211.004" y2="70.5"/>
	<line display="inline" fill="none" stroke="#B9B9B9" stroke-miterlimit="10" x1="400.004" y1="80.5" x2="211.004" y2="80.5"/>
	<line display="inline" fill="none" stroke="#B9B9B9" stroke-miterlimit="10" x1="400.004" y1="90.5" x2="211.004" y2="90.5"/>
	<line display="inline" fill="none" stroke="#B9B9B9" stroke-miterlimit="10" x1="400.004" y1="100.5" x2="211.004" y2="100.5"/>
	<line display="inline" fill="none" stroke="#B9B9B9" stroke-miterlimit="10" x1="220.504" y1="0" x2="220.504" y2="101"/>
	<line display="inline" fill="none" stroke="#B9B9B9" stroke-miterlimit="10" x1="230.504" y1="0" x2="230.504" y2="101"/>
	<line display="inline" fill="none" stroke="#B9B9B9" stroke-miterlimit="10" x1="240.504" y1="0" x2="240.504" y2="101"/>
	<line display="inline" fill="none" stroke="#B9B9B9" stroke-miterlimit="10" x1="250.504" y1="0" x2="250.504" y2="101"/>
	<line display="inline" fill="none" stroke="#B9B9B9" stroke-miterlimit="10" x1="260.504" y1="0" x2="260.504" y2="101"/>
	<line display="inline" fill="none" stroke="#B9B9B9" stroke-miterlimit="10" x1="270.504" y1="0" x2="270.504" y2="101"/>
	<line display="inline" fill="none" stroke="#B9B9B9" stroke-miterlimit="10" x1="280.504" y1="0" x2="280.504" y2="101"/>
	<line display="inline" fill="none" stroke="#B9B9B9" stroke-miterlimit="10" x1="290.504" y1="0" x2="290.504" y2="101"/>
	<line display="inline" fill="none" stroke="#B9B9B9" stroke-miterlimit="10" x1="300.504" y1="0" x2="300.504" y2="101"/>
	<line display="inline" fill="none" stroke="#B9B9B9" stroke-miterlimit="10" x1="310.504" y1="0" x2="310.504" y2="101"/>
	<line display="inline" fill="none" stroke="#B9B9B9" stroke-miterlimit="10" x1="320.504" y1="0" x2="320.504" y2="101"/>
	<line display="inline" fill="none" stroke="#B9B9B9" stroke-miterlimit="10" x1="330.504" y1="0" x2="330.504" y2="101"/>
	<line display="inline" fill="none" stroke="#B9B9B9" stroke-miterlimit="10" x1="340.504" y1="0" x2="340.504" y2="101"/>
	<line display="inline" fill="none" stroke="#B9B9B9" stroke-miterlimit="10" x1="350.504" y1="0" x2="350.504" y2="101"/>
	<line display="inline" fill="none" stroke="#B9B9B9" stroke-miterlimit="10" x1="360.504" y1="0" x2="360.504" y2="101"/>
	<line display="inline" fill="none" stroke="#B9B9B9" stroke-miterlimit="10" x1="370.504" y1="0" x2="370.504" y2="101"/>
	<line display="inline" fill="none" stroke="#B9B9B9" stroke-miterlimit="10" x1="380.504" y1="0" x2="380.504" y2="101"/>
	<line display="inline" fill="none" stroke="#B9B9B9" stroke-miterlimit="10" x1="390.504" y1="0" x2="390.504" y2="101"/>
	<line display="inline" fill="none" stroke="#B9B9B9" stroke-miterlimit="10" x1="400.504" y1="0" x2="400.504" y2="101"/>
</g>
<g id="Ebene_1">
	<rect x="-0.009" y="-0.009" fill="none" width="191" height="81"/>
	<g>
		<path d="M50.569,48.098c-0.589,0.174-1.058,0.239-1.674,0.239c-5.046,0-12.455-17.633-12.455-23.502c0-2.16,0.511-2.881,1.233-3.5
			c-6.176,0.721-13.586,2.987-15.956,5.868c-0.512,0.722-0.823,1.853-0.823,3.295c0,9.162,9.779,29.951,16.677,29.951
			C40.762,60.449,46.142,55.203,50.569,48.098"/>
		<path d="M47.348,20.72c6.381,0,12.767,1.029,12.767,4.631c0,7.308-4.635,16.164-7,16.164c-4.221,0-9.471-11.737-9.471-17.606
			C43.644,21.233,44.673,20.72,47.348,20.72"/>
	</g>
	<g>
		<path d="M260.569,47.805c-0.589,0.174-1.058,0.239-1.674,0.239c-5.046,0-12.455-17.633-12.455-23.502
			c0-2.16,0.511-2.881,1.233-3.5c-6.176,0.721-13.586,2.987-15.956,5.868c-0.512,0.722-0.823,1.853-0.823,3.295
			c0,9.162,9.779,29.951,16.677,29.951C250.762,60.155,256.142,54.909,260.569,47.805"/>
		<path d="M257.348,20.426c6.381,0,12.767,1.029,12.767,4.631c0,7.308-4.635,16.164-7,16.164c-4.221,0-9.471-11.737-9.471-17.606
			C253.644,20.939,254.673,20.426,257.348,20.426"/>
	</g>
	<g>
		<path d="M291.512,33.669V60.5h-3.741V33.669h-6.622V30.4h16.985v3.269H291.512z"/>
		<path d="M311.205,46.525V60.5h-3.87V46.525L299.639,30.4h4.128l5.676,12.513l5.676-12.513h3.913L311.205,46.525z"/>
		<path d="M330.9,49.148h-3.612V60.5h-3.74V30.4c0,0,3.697-0.301,7.267-0.301c6.536,0,8.428,4.042,8.428,9.331
			C339.242,45.966,337.005,49.148,330.9,49.148z M331.329,33.195c-2.364,0-4.042,0.258-4.042,0.258v12.556h4.042
			c2.408,0,4.085-1.591,4.085-6.277C335.414,35.432,334.383,33.195,331.329,33.195z"/>
		<path d="M353.174,60.801c-7.096,0-8.987-5.16-8.987-15.694c0-10.105,1.892-15.007,8.987-15.007c7.095,0,8.986,4.901,8.986,15.007
			C362.161,55.641,360.269,60.801,353.174,60.801z M353.174,33.238c-3.87,0-5.16,2.623-5.16,12.083c0,9.245,1.29,12.341,5.16,12.341
			c3.869,0,5.159-3.096,5.159-12.341C358.333,35.861,357.043,33.238,353.174,33.238z"/>
		<path d="M373.727,60.801c-2.106,0-5.245-0.645-5.633-0.73v-3.226c1.032,0.215,3.698,0.688,5.59,0.688
			c2.193,0,3.612-1.806,3.612-5.117c0-3.999-0.646-5.977-3.698-5.977h-3.525V43.3h3.096c3.482,0,3.655-3.568,3.655-5.288
			c0-3.397-1.075-4.773-3.226-4.773c-1.892,0-4.042,0.474-5.289,0.731v-3.14c0.474-0.086,3.011-0.73,5.203-0.73
			c4.429,0,6.966,1.892,6.966,8.299c0,2.924-0.902,5.504-3.268,6.234c2.795,0.388,3.784,3.14,3.784,7.354
			C380.995,58.393,378.5,60.801,373.727,60.801z"/>
	</g>
	<g>
		<path d="M285.912,80.5l-0.532-2.479h-2.731l-0.547,2.479h-1.246l2.367-9.806h1.61l2.325,9.806H285.912z M284.006,71.619
			l-1.135,5.351h2.283L284.006,71.619z"/>
		<path d="M292.463,80.5l-0.099-0.588c-0.42,0.434-0.952,0.686-1.667,0.686c-1.778,0-2.283-1.106-2.283-3.291
			c0-2.76,0.911-3.908,3.054-3.908c0.322,0,0.574,0.027,0.785,0.056v-2.76h1.19V80.5H292.463z M292.253,78.398v-3.936
			c-0.211-0.028-0.505-0.057-0.925-0.057c-1.331,0-1.695,1.093-1.695,3.04c0,1.681,0.393,2.144,1.289,2.144
			C291.79,79.59,292.253,78.903,292.253,78.398z"/>
		<path d="M299.519,80.5l-0.099-0.588c-0.42,0.434-0.952,0.686-1.667,0.686c-1.778,0-2.283-1.106-2.283-3.291
			c0-2.76,0.911-3.908,3.054-3.908c0.322,0,0.574,0.027,0.785,0.056v-2.76h1.19V80.5H299.519z M299.309,78.398v-3.936
			c-0.211-0.028-0.505-0.057-0.925-0.057c-1.331,0-1.695,1.093-1.695,3.04c0,1.681,0.393,2.144,1.289,2.144
			C298.846,79.59,299.309,78.903,299.309,78.398z"/>
		<path d="M302.667,71.955v-1.261h1.33v1.261H302.667z M302.737,80.5v-7.004h1.191V80.5H302.737z"/>
		<path d="M307.497,74.547v4.272c0,0.266,0.112,0.771,0.7,0.771c0.421,0,0.715-0.084,0.925-0.141v0.98
			c-0.182,0.057-0.7,0.168-1.205,0.168c-1.134,0-1.61-0.798-1.61-1.849v-4.202h-0.91v-1.051h0.91v-1.681h1.19v1.681h1.625v1.051
			H307.497z"/>
		<path d="M310.591,71.955v-1.261h1.33v1.261H310.591z M310.661,80.5v-7.004h1.191V80.5H310.661z"/>
		<path d="M316.542,80.598c-1.737,0-2.662-0.798-2.662-3.739c0-2.382,0.841-3.46,2.662-3.46c1.82,0,2.661,1.078,2.661,3.46
			C319.204,79.8,318.279,80.598,316.542,80.598z M316.542,74.379c-1.121,0-1.443,0.7-1.443,2.689c0,1.82,0.393,2.549,1.443,2.549
			c1.05,0,1.442-0.729,1.442-2.549C317.985,75.079,317.663,74.379,316.542,74.379z"/>
		<path d="M321.231,80.5v-7.004h0.98l0.098,0.631c0.448-0.477,1.022-0.729,1.723-0.729c1.597,0,2.115,0.771,2.115,2.479V80.5h-1.19
			v-4.763c0-0.883-0.196-1.331-1.135-1.331c-0.798,0-1.4,0.687-1.4,1.191V80.5H321.231z"/>
		<path d="M332.881,80.5c-0.267,0-0.841-0.112-1.051-0.687c-0.351,0.505-0.911,0.784-1.85,0.784c-1.022,0-2.087-0.336-2.087-2.072
			c0-1.514,0.938-2.34,2.493-2.34h1.107V75.43c0-0.589-0.351-1.023-1.051-1.023c-0.799,0-1.331,0.099-2.031,0.295v-1.022
			c0.519-0.154,1.204-0.28,1.891-0.28c1.821,0,2.382,0.714,2.382,2.311v3.362c0,0.28,0.168,0.448,0.616,0.448v0.98H332.881z
			 M331.495,78.609v-1.472h-1.177c-0.603,0-1.205,0.379-1.205,1.303c0,0.869,0.406,1.149,1.148,1.149
			C331.228,79.59,331.495,78.889,331.495,78.609z"/>
		<path d="M337.079,80.43c-0.195,0.042-0.476,0.112-0.84,0.112c-0.547,0-1.19-0.336-1.19-1.611v-8.236h1.19v8.167
			c0,0.49,0.098,0.658,0.462,0.658c0.154,0,0.309-0.056,0.378-0.07V80.43z"/>
		<path d="M344.864,71.759V80.5h-1.219v-8.741h-2.157v-1.064h5.533v1.064H344.864z"/>
		<path d="M348.349,77.418c0.042,1.85,0.49,2.172,1.19,2.172c0.771,0,1.457-0.126,1.877-0.225v1.009
			c-0.448,0.126-1.232,0.224-1.737,0.224c-1.61,0-2.521-0.476-2.521-3.6c0-2.592,0.869-3.6,2.55-3.6c1.61,0,2.255,1.12,2.255,2.97
			v1.05H348.349z M348.363,76.466h2.438v-0.378c0-1.064-0.294-1.695-1.121-1.695C348.783,74.393,348.433,74.854,348.363,76.466z"/>
		<path d="M357.198,80.5l-1.331-2.592l-1.4,2.592h-1.316l2.031-3.614l-1.863-3.39h1.373l1.204,2.312l1.219-2.312h1.303l-1.891,3.334
			l2.072,3.67H357.198z"/>
		<path d="M361.537,74.547v4.272c0,0.266,0.112,0.771,0.7,0.771c0.421,0,0.715-0.084,0.925-0.141v0.98
			c-0.182,0.057-0.7,0.168-1.205,0.168c-1.134,0-1.61-0.798-1.61-1.849v-4.202h-0.91v-1.051h0.91v-1.681h1.19v1.681h1.625v1.051
			H361.537z"/>
	</g>
	<g>
		<path d="M81.512,33.669V60.5h-3.741V33.669h-6.622V30.4h16.985v3.269H81.512z"/>
		<path d="M101.205,46.525V60.5h-3.87V46.525L89.639,30.4h4.128l5.676,12.513l5.676-12.513h3.913L101.205,46.525z"/>
		<path d="M120.9,49.148h-3.612V60.5h-3.74V30.4c0,0,3.697-0.301,7.267-0.301c6.536,0,8.428,4.042,8.428,9.331
			C129.242,45.966,127.005,49.148,120.9,49.148z M121.329,33.195c-2.364,0-4.042,0.258-4.042,0.258v12.556h4.042
			c2.408,0,4.085-1.591,4.085-6.277C125.414,35.432,124.383,33.195,121.329,33.195z"/>
		<path d="M143.174,60.801c-7.096,0-8.987-5.16-8.987-15.694c0-10.105,1.892-15.007,8.987-15.007c7.095,0,8.986,4.901,8.986,15.007
			C152.161,55.641,150.269,60.801,143.174,60.801z M143.174,33.238c-3.87,0-5.16,2.623-5.16,12.083c0,9.245,1.29,12.341,5.16,12.341
			c3.869,0,5.159-3.096,5.159-12.341C148.333,35.861,147.043,33.238,143.174,33.238z"/>
		<path d="M163.727,60.801c-2.106,0-5.245-0.645-5.633-0.73v-3.226c1.032,0.215,3.698,0.688,5.59,0.688
			c2.193,0,3.612-1.806,3.612-5.117c0-3.999-0.646-5.977-3.698-5.977h-3.525V43.3h3.096c3.482,0,3.655-3.568,3.655-5.288
			c0-3.397-1.075-4.773-3.226-4.773c-1.892,0-4.042,0.474-5.289,0.731v-3.14c0.474-0.086,3.011-0.73,5.203-0.73
			c4.429,0,6.966,1.892,6.966,8.299c0,2.924-0.902,5.504-3.268,6.234c2.795,0.388,3.784,3.14,3.784,7.354
			C170.995,58.393,168.5,60.801,163.727,60.801z"/>
	</g>
	<rect x="210.035" fill="none" width="190.969" height="101"/>
	<g>
	</g>
	<g>
	</g>
	<g>
	</g>
	<g>
	</g>
	<g>
	</g>
	<g>
	</g>
	<g>
	</g>
	<g>
	</g>
	<g>
	</g>
	<g>
	</g>
	<g>
	</g>
	<g>
	</g>
	<g>
	</g>
	<g>
	</g>
	<g>
	</g>
	<g>
	</g>
	<g>
	</g>
	<g>
	</g>
</g>
</svg>
